<?xml version="1.0" encoding="UTF-8" standalone="no"?>
<svg
   xmlns:dc="http://purl.org/dc/elements/1.1/"
   xmlns:cc="http://creativecommons.org/ns#"
   xmlns:rdf="http://www.w3.org/1999/02/22-rdf-syntax-ns#"
   xmlns:svg="http://www.w3.org/2000/svg"
   xmlns="http://www.w3.org/2000/svg"
   xmlns:sodipodi="http://sodipodi.sourceforge.net/DTD/sodipodi-0.dtd"
   xmlns:inkscape="http://www.inkscape.org/namespaces/inkscape"
   width="54.235569mm"
   height="50.270821mm"
   viewBox="0 0 54.235569 50.270821"
   version="1.1"
   id="svg8"
   inkscape:version="1.0.2-2 (e86c870879, 2021-01-15)"
   sodipodi:docname="UDE signet.svg">
  <defs
     id="defs2" />
  <sodipodi:namedview
     id="base"
     pagecolor="#ffffff"
     bordercolor="#666666"
     borderopacity="1.0"
     inkscape:pageopacity="0.0"
     inkscape:pageshadow="2"
     inkscape:zoom="1.979899"
     inkscape:cx="49.496671"
     inkscape:cy="107.04561"
     inkscape:document-units="mm"
     inkscape:current-layer="layer1"
     inkscape:document-rotation="0"
     showgrid="false"
     inkscape:snap-text-baseline="true"
     inkscape:window-width="1920"
     inkscape:window-height="1017"
     inkscape:window-x="1912"
     inkscape:window-y="-8"
     inkscape:window-maximized="1"
     fit-margin-top="0"
     fit-margin-left="0"
     fit-margin-right="0"
     fit-margin-bottom="0" />
  <metadata
     id="metadata5">
    <rdf:RDF>
      <cc:Work
         rdf:about="">
        <dc:format>image/svg+xml</dc:format>
        <dc:type
           rdf:resource="http://purl.org/dc/dcmitype/StillImage" />
        <dc:title></dc:title>
      </cc:Work>
    </rdf:RDF>
  </metadata>
  <g
     inkscape:label="Layer 1"
     inkscape:groupmode="layer"
     id="layer1"
     transform="translate(-16.644861,-18.782413)">
    <path
       style="fill:#003b7a;fill-opacity:1;stroke-width:0.264583"
       d="m 16.918753,68.541473 c -0.183049,-0.34203 -0.273892,-8.50329 -0.273892,-24.60625 0,-23.7417 0.0077,-24.10222 0.529167,-24.62364 0.521419,-0.52142 0.881944,-0.52917 24.623643,-0.52917 16.102957,0 24.264217,0.0908 24.606247,0.27389 0.48261,0.25828 0.51177,0.61187 0.51177,6.20395 v 5.93005 l -0.85989,-0.29416 c -0.47294,-0.16179 -0.94737,-0.42348 -1.05428,-0.58155 -0.10692,-0.15806 -0.19621,-2.28234 -0.19844,-4.72062 l -0.004,-4.43323 -22.952604,0.0676 -22.952604,0.0676 v 22.75417 22.75416 l 23.944791,0.1323 23.944787,0.13229 0.0821,0.99219 0.0821,0.99218 H 42.070141 c -24.324861,0 -24.88358,-0.0114 -25.151388,-0.51177 z m 11.593604,-9.41291 c -1.445416,-0.46336 -2.717541,-1.78065 -3.120337,-3.23111 -0.161648,-0.58209 -0.278158,-3.95481 -0.279017,-8.07702 l -0.0015,-7.0776 h 1.571948 1.571948 l 0.0817,7.29814 0.0817,7.29814 0.86407,0.77165 c 1.382872,1.23496 3.81706,1.04587 4.61997,-0.35889 0.239756,-0.41948 0.374909,-2.64753 0.469085,-7.733 l 0.132292,-7.14375 1.669059,-0.0792 1.66906,-0.0792 -0.08156,7.35521 c -0.08026,7.23766 -0.09213,7.37635 -0.743018,8.67813 -0.526744,1.05349 -0.924948,1.4535 -1.955214,1.96412 -1.627446,0.80659 -4.716952,1.00201 -6.550206,0.41432 z m 14.918092,-9.19146 0.06962,-9.06198 3.968749,0.0262 c 4.52907,0.0299 5.3967,0.27156 6.71457,1.87037 1.1597,1.40691 1.65145,3.02622 1.81324,5.97092 0.23042,4.1938 -0.5228,6.88484 -2.4513,8.75778 -1.24645,1.21053 -2.5398,1.49871 -6.72631,1.49871 h -3.458189 z m 7.081079,5.90224 c 1.33014,-0.94002 1.6857,-1.98369 1.80244,-5.29065 0.12447,-3.52601 -0.1662,-4.94893 -1.26133,-6.17459 -0.69884,-0.78214 -0.88238,-0.84619 -2.4344,-0.84953 l -1.67859,-0.004 -0.0711,6.18463 c -0.051,4.43502 0.0167,6.2904 0.23922,6.55853 0.40403,0.48683 2.48052,0.22769 3.40376,-0.42477 z m 10.58333,-5.96839 v -9.12812 h 4.89479 c 2.69214,0 4.89299,0.0298 4.89078,0.0661 -0.002,0.0364 -0.16396,0.60193 -0.35945,1.25677 l -0.35544,1.19063 -2.94784,0.0748 -2.94784,0.0748 v 2.37258 2.37259 h 2.64583 2.64584 v 1.31334 1.31333 l -2.57969,0.0757 -2.57969,0.0757 v 2.77813 2.77812 l 3.10886,0.0745 3.10885,0.0745 v 1.18223 1.18223 h -4.7625 -4.7625 z"
       id="path847" />
  </g>
</svg>
