<?xml version="1.0" encoding="UTF-8" standalone="no"?>
<svg
   xmlns:dc="http://purl.org/dc/elements/1.1/"
   xmlns:cc="http://creativecommons.org/ns#"
   xmlns:rdf="http://www.w3.org/1999/02/22-rdf-syntax-ns#"
   xmlns:svg="http://www.w3.org/2000/svg"
   xmlns="http://www.w3.org/2000/svg"
   xmlns:sodipodi="http://sodipodi.sourceforge.net/DTD/sodipodi-0.dtd"
   xmlns:inkscape="http://www.inkscape.org/namespaces/inkscape"
   id="Ebene_1"
   data-name="Ebene 1"
   viewBox="0 0 841.89 331.654"
   version="1.1"
   sodipodi:docname="logo_claim_negativ_rgb.svg"
   inkscape:version="1.0.2-2 (e86c870879, 2021-01-15)">
  <metadata
     id="metadata45">
    <rdf:RDF>
      <cc:Work
         rdf:about="">
        <dc:format>image/svg+xml</dc:format>
        <dc:type
           rdf:resource="http://purl.org/dc/dcmitype/StillImage" />
      </cc:Work>
    </rdf:RDF>
  </metadata>
  <sodipodi:namedview
     pagecolor="#ffffff"
     bordercolor="#666666"
     borderopacity="1"
     objecttolerance="10"
     gridtolerance="10"
     guidetolerance="10"
     inkscape:pageopacity="0"
     inkscape:pageshadow="2"
     inkscape:window-width="1920"
     inkscape:window-height="1017"
     id="namedview43"
     showgrid="false"
     inkscape:zoom="0.87517996"
     inkscape:cx="472.21214"
     inkscape:cy="230.36396"
     inkscape:window-x="1912"
     inkscape:window-y="-8"
     inkscape:window-maximized="1"
     inkscape:current-layer="Ebene_1" />
  <defs
     id="defs4">
    <style
       id="style2">.cls-1{fill:#fff;}.cls-2{fill:#004c93;}</style>
  </defs>
  <title
     id="title6">logo_claim_rgb_negativ</title>
  <path
     class="cls-1"
     d="M44.8,311.809c-8.594,0-13.473-5.24-13.473-15.074,0-17.035,7.5-37.279,24.249-37.279,8.446,0,13.324,5.314,13.324,15.146C68.9,291.565,61.474,311.809,44.8,311.809Zm14.272-36.988c0-5.246-1.094-7.721-4.589-7.721-8.665,0-13.324,17.549-13.324,29.418,0,5.17,1.093,7.645,4.659,7.645C54.483,304.163,59.072,286.69,59.072,274.821Z"
     id="path8" />
  <path
     class="cls-1"
     d="M82.814,311.079c-1.384,6.845-4.08,14.2-13.981,14.2-3.351,0-6.481-.438-6.481-1.238a3.109,3.109,0,0,1,.144-.8l1.53-5.1c.147-.359.293-.508.512-.508a16.934,16.934,0,0,0,2.983.365c4.951,0,5.826-3.347,6.772-8.007l5.68-28.836H74.8c-.436,0-1.017-.074-1.017-.731a3.774,3.774,0,0,1,.144-.871l.873-4.082c.076-.65.219-.869,1.022-.869h5.388l.874-4.59c1.093-5.9,2.985-11.65,12.96-11.65,3.057,0,7.354.949,7.354,2.041a1.7,1.7,0,0,1-.146.582l-1.746,5.1c-.218.438-.437.506-.584.506-.728,0-2.183-.943-4.369-.943-3.785,0-4.3,2.838-4.95,5.824L89.95,274.6h8.3c.656,0,.874.363.874.652a3.839,3.839,0,0,1-.218.875l-1.312,4.223c-.219.654-.291.8-1.019.8H88.71Z"
     id="path10" />
  <path
     class="cls-1"
     d="M108.446,311.079c-1.384,6.845-4.079,14.2-13.98,14.2-3.35,0-6.482-.438-6.482-1.238a3.032,3.032,0,0,1,.147-.8l1.528-5.1c.147-.359.291-.508.509-.508a17,17,0,0,0,2.986.365c4.954,0,5.826-3.347,6.772-8.007l5.679-28.836h-5.169c-.437,0-1.02-.074-1.02-.731a3.53,3.53,0,0,1,.147-.871l.873-4.082c.071-.65.219-.869,1.02-.869h5.388l.872-4.59c1.092-5.9,2.986-11.65,12.962-11.65,3.059,0,7.355.949,7.355,2.041a1.681,1.681,0,0,1-.147.582l-1.748,5.1c-.217.438-.435.506-.582.506-.727,0-2.183-.943-4.367-.943-3.788,0-4.3,2.838-4.953,5.824l-.655,3.133h8.3c.657,0,.875.363.875.652a3.839,3.839,0,0,1-.218.875l-1.312,4.223c-.218.654-.291.8-1.019.8h-7.864Z"
     id="path12" />
  <path
     class="cls-1"
     d="M149.514,306.637a2.324,2.324,0,0,1,.219.656c0,.95-6.772,4.516-14.2,4.516-8.736,0-12.67-5.459-12.67-13.543,0-14.562,9.394-24.906,20.607-24.906,6.846,0,10.776,3.793,10.776,9.615,0,13.76-18.494,13.76-22.645,13.76,0,2.185-.582,7.791,6.262,7.791,4.295,0,8.155-2.91,9.248-2.91.363,0,.438.216.582.509Zm-16.893-16.453c3.132,0,12.889,0,12.889-6.7a3.309,3.309,0,0,0-3.351-3.573C135.315,279.914,133.276,287.491,132.621,290.184Z"
     id="path14" />
  <path
     class="cls-1"
     d="M183.523,309.7c-.144.8-.29.873-1.019.873h-6.771c-.582,0-.947-.149-.947-.729,0-.219.073-.508.073-.8l4.8-20.752a18.165,18.165,0,0,0,.655-4.441c0-1.674-.655-2.842-2.184-2.842-6.7,0-9.1,9.032-10.266,14.274l-3.13,14.418c-.147.8-.293.873-1.021.873h-6.772c-.583,0-.946-.149-.946-.729,0-.219.075-.508.075-.8l4.947-21.918a23.9,23.9,0,0,0,.875-5.968c0-2.186-.655-3.2-.655-4.516,0-.51.511-.656.873-.8l5.828-2.259a1.735,1.735,0,0,1,.726-.221c.8,0,1.457,3.279,1.457,7.359,1.966-2.33,6.117-7.359,12.086-7.359,4.734,0,7.355,3.642,7.355,7.646a24.835,24.835,0,0,1-.728,5.684Z"
     id="path16" />
  <path
     class="cls-1"
     d="M223.36,309.114c-.148.658-.219,1.457-.947,1.457h-3.86c-.437,0-.728-.149-.728-.367a3.1,3.1,0,0,1,.146-.87l6.262-29.49h-5.752c-.51,0-.584-.219-.584-.512a2.034,2.034,0,0,1,.074-.582l.51-2.328c.146-.511.365-.8.874-.8h9.685c1.018,0,1.163.07,1.163.582a16.26,16.26,0,0,1-.362,1.818Zm6.917-42.594a4.073,4.073,0,0,1-4.079-4.078,4.12,4.12,0,0,1,4.079-4.08,4.168,4.168,0,0,1,4.077,4.08A4.119,4.119,0,0,1,230.277,266.52Z"
     id="path18" />
  <path
     class="cls-1"
     d="M275.932,285.522a13.485,13.485,0,0,0,.438-2.912c0-2.041-1.092-3.129-3.278-3.129-7.646,0-9.9,7.642-11.65,15.506l-3.276,14.855c-.147.512-.291.729-.875.729h-3.786c-.364,0-.582-.149-.582-.436a1.243,1.243,0,0,1,.074-.512l5.1-24.1a13.483,13.483,0,0,0,.437-2.912c0-2.041-1.093-3.129-3.28-3.129-7.645,0-10.482,9.683-11.5,14.488L240.4,309.842c-.144.512-.288.729-.872.729h-3.788c-.363,0-.581-.149-.581-.436a1.228,1.228,0,0,1,.075-.512l5.166-24.462a25.352,25.352,0,0,0,.512-4.155,22.755,22.755,0,0,0-.581-4.367c0-.291.362-.51.653-.582l2.476-1.092a4.459,4.459,0,0,1,1.019-.363c.8,0,1.312,1.82,1.312,3.637,0,1.461-.147,2.33-.147,3.279h.147c2.4-3.5,5.9-6.916,11.65-6.916,3.5,0,6.116,1.963,6.116,6.916h.144c2.549-3.5,6.046-6.916,11.58-6.916,3.786,0,6.625,1.963,6.625,5.822a23.891,23.891,0,0,1-.728,5.1L276,309.842c-.143.512-.29.729-.871.729h-3.788c-.364,0-.581-.149-.581-.436a1.243,1.243,0,0,1,.074-.512Z"
     id="path20" />
  <path
     class="cls-1"
     d="M328.367,260.692c8.371,0,16.891.293,16.891,14.055a59.729,59.729,0,0,1-6.481,25.486c-4.151,7.861-10.994,10.338-19.658,10.338h-8.667c-.362,0-.582-.149-.582-.512l10.34-48.637c.146-.582.436-.73.874-.73Zm-7.428,45a13.526,13.526,0,0,0,10.776-5.02c4.732-5.466,7.572-19.009,7.572-26,0-8.519-4.661-9.1-9.61-9.1h-4.661l-8.446,40.119Z"
     id="path22" />
  <path
     class="cls-1"
     d="M373.661,306.057c.074.143.146.217.146.361,0,.875-6.408,5.172-13.471,5.172-8.227,0-11.8-5.24-11.8-13.324,0-12.381,7.572-23.664,18.422-23.664,6.479,0,9.609,3.932,9.609,9.32,0,12.668-16.017,12.668-22.426,12.741,0,.656-.072,1.24-.072,1.822,0,5.166,2.039,8.008,6.771,8.008,6.481,0,9.392-3.493,10.414-3.493a.83.83,0,0,1,.653.432Zm-2.184-21.916c0-3.06-1.749-5.027-5.316-5.027-8.3,0-10.63,9.468-11.431,13.037C358.734,292.151,371.477,292.151,371.477,284.141Z"
     id="path24" />
  <path
     class="cls-1"
     d="M385.969,285.161a25.526,25.526,0,0,0,.509-4.155,22.6,22.6,0,0,0-.581-4.367c0-.291.363-.51.655-.582l2.621-1.092a4.41,4.41,0,0,1,1.022-.363c.581,0,1.38,2.182,1.38,4.443,0,1.453-.219,2.618-.219,3.274h.147c2.695-3.785,6.7-7.717,13.178-7.717,3.789,0,6.628,1.963,6.628,5.822a23.828,23.828,0,0,1-.728,5.1l-5.168,24.32c-.148.512-.294.729-.876.729h-3.786c-.364,0-.584-.149-.584-.436a1.259,1.259,0,0,1,.073-.512l5.1-24.1a13.421,13.421,0,0,0,.437-2.912c0-2.041-1.093-3.129-3.276-3.129-7.862,0-12.159,9.683-13.178,14.488l-3.351,15.873c-.147.512-.291.729-.872.729h-3.788c-.365,0-.584-.149-.584-.436a1.243,1.243,0,0,1,.074-.512Z"
     id="path26" />
  <path
     class="cls-1"
     d="M421.871,309.842c-.145.512-.291.729-.873.729H417.21c-.362,0-.582-.149-.582-.436a1.228,1.228,0,0,1,.075-.512l10.556-49.585c.073-.438.218-1.02.729-1.165l3.643-.873a4.572,4.572,0,0,1,.652-.144c.51,0,.584.217.51.58l-6.772,31.6.147.146,17.619-15.656c.147-.072.365-.293.583-.293.149,0,.439.221.585.293l2.474,2.037c.146.15.293.293.293.437a.525.525,0,0,1-.293.512l-16.092,13.469,10.923,17.476c.072.145.218.289.218.438a.82.82,0,0,1-.508.582l-3.205,1.967a1.182,1.182,0,0,1-.582.218.681.681,0,0,1-.511-.367L425.8,291.2Z"
     id="path28" />
  <path
     class="cls-1"
     d="M472.188,306.057c.074.143.146.217.146.361,0,.875-6.406,5.172-13.469,5.172-8.228,0-11.8-5.24-11.8-13.324,0-12.381,7.575-23.664,18.422-23.664,6.482,0,9.612,3.932,9.612,9.32,0,12.668-16.017,12.668-22.426,12.741,0,.656-.074,1.24-.074,1.822,0,5.166,2.041,8.008,6.77,8.008,6.484,0,9.4-3.493,10.415-3.493a.832.832,0,0,1,.655.432ZM470,284.141c0-3.06-1.746-5.027-5.317-5.027-8.3,0-10.628,9.468-11.432,13.037C457.261,292.151,470,292.151,470,284.141Z"
     id="path30" />
  <path
     class="cls-1"
     d="M484.5,285.161a25.526,25.526,0,0,0,.509-4.155,22.521,22.521,0,0,0-.581-4.367c0-.291.363-.51.655-.582l2.621-1.092a4.437,4.437,0,0,1,1.021-.363c.582,0,1.38,2.182,1.38,4.443,0,1.453-.217,2.618-.217,3.274h.145c2.7-3.785,6.7-7.717,13.179-7.717,3.788,0,6.628,1.963,6.628,5.822a23.766,23.766,0,0,1-.729,5.1l-5.169,24.32c-.146.512-.294.729-.874.729H499.28c-.366,0-.584-.149-.584-.436a1.259,1.259,0,0,1,.073-.512l5.1-24.1a13.481,13.481,0,0,0,.436-2.912c0-2.041-1.093-3.129-3.277-3.129-7.861,0-12.159,9.683-13.177,14.488L484.5,309.842c-.146.512-.291.729-.872.729h-3.789c-.364,0-.583-.149-.583-.436a1.243,1.243,0,0,1,.074-.512Z"
     id="path32" />
  <path
     id="rect34"
     style="fill:#ffffff"
     d="M 0 0 L 0 209.47266 L 841.89062 209.47266 L 841.89062 0 L 0 0 z M 269.79102 22.523438 L 274.97266 22.523438 L 274.97266 28.123047 L 269.79102 28.123047 L 269.79102 22.523438 z M 277.30859 22.523438 L 282.53125 22.523438 L 282.53125 28.123047 L 277.30859 28.123047 L 277.30859 22.523438 z M 207.78906 29.302734 A 11.2 11.2 0 0 1 217.38086 34.792969 L 212.45508 38.318359 C 210.79208 35.978359 208.9717 34.837891 206.8457 34.837891 L 206.84375 34.835938 C 204.72075 34.835938 203.4043 36.028547 203.4043 37.685547 C 203.4043 39.251547 204.63844 40.403953 207.14844 41.501953 C 210.28144 42.854953 213.04806 43.756281 214.91406 45.238281 A 8.894 8.894 0 0 1 218.18555 52.419922 C 218.18555 58.072922 213.94036 61.976564 207.48438 61.976562 A 12.5 12.5 0 0 1 196.26562 55.6875 L 201.61719 51.910156 C 203.40519 54.843156 205.14939 56.195314 207.65039 56.195312 C 210.03139 56.195312 211.56641 54.796547 211.56641 52.935547 C 211.56641 51.235547 210.46609 49.949422 208.12109 48.982422 C 205.06309 47.706422 202.3835 46.817203 200.4375 45.283203 A 8.482 8.482 0 0 1 197.16406 38.314453 C 197.16406 32.836453 201.03156 29.314453 207.22656 29.314453 A 11.2 11.2 0 0 1 207.78906 29.302734 z M 33.4375 30.123047 L 40.314453 30.123047 L 40.314453 49.537109 C 40.314453 54.037109 40.988547 55.945314 44.560547 55.945312 C 48.176547 55.945312 48.808594 53.989109 48.808594 49.537109 L 48.808594 30.123047 L 55.689453 30.123047 L 55.689453 51.099609 C 55.689453 58.406609 52.127453 61.935547 44.564453 61.935547 L 44.560547 61.933594 C 37.041547 61.933594 33.4375 58.365656 33.4375 51.097656 L 33.4375 30.123047 z M 64.443359 30.123047 L 71.064453 30.123047 L 81.007812 48.982422 L 80.876953 30.123047 L 86.869141 30.123047 L 86.869141 61.177734 L 81.212891 61.177734 L 70.300781 40.191406 L 70.425781 61.177734 L 64.443359 61.177734 L 64.443359 30.123047 z M 96.205078 30.123047 L 103.08984 30.123047 L 103.12891 61.177734 L 96.244141 61.177734 L 96.205078 30.123047 z M 109.33203 30.123047 L 116.21094 30.123047 L 122.49219 51.824219 L 128.73438 30.123047 L 135.61914 30.123047 L 126.10352 61.177734 L 118.8418 61.177734 L 109.33203 30.123047 z M 141.01758 30.123047 L 161.95117 30.123047 L 161.95117 36.111328 L 147.90039 36.111328 L 147.90039 41.673828 L 157.5 41.673828 L 157.5 47.662109 L 147.90039 47.662109 L 147.90039 55.183594 L 162.83789 55.183594 L 162.83789 61.177734 L 141.01758 61.177734 L 141.01758 30.123047 z M 169.72266 30.123047 L 177.53711 30.123047 C 181.70311 30.123047 184.84366 30.252453 187.09766 31.439453 C 189.89766 32.928453 191.42578 35.685922 191.42578 39.294922 C 191.42578 43.459922 189.42528 46.423031 185.73828 47.707031 L 185.73828 47.708984 L 192.5332 61.179688 L 184.93359 61.179688 L 178.90039 48.513672 L 176.59961 48.513672 L 176.59961 61.177734 L 169.72266 61.177734 L 169.72266 30.123047 z M 225.66016 30.123047 L 232.53711 30.123047 L 232.58594 61.177734 L 225.70508 61.177734 L 225.66016 30.123047 z M 238.40039 30.123047 L 260.99219 30.123047 L 260.99219 36.111328 L 253.14453 36.111328 L 253.14453 61.177734 L 246.25977 61.177734 L 246.25977 36.111328 L 238.40039 36.111328 L 238.40039 30.123047 z M 272.08008 30.123047 L 280.19141 30.123047 L 289.11328 61.177734 L 282.44727 61.177734 L 280.7832 54.976562 L 271.44336 54.976562 L 269.82812 61.177734 L 263.15625 61.177734 L 272.08008 30.123047 z M 291.31836 30.123047 L 313.91992 30.123047 L 313.91992 36.111328 L 306.05664 36.111328 L 306.05664 61.177734 L 299.17969 61.177734 L 299.17969 36.111328 L 291.31836 36.111328 L 291.31836 30.123047 z M 176.59961 35.392578 L 176.59961 43.544922 L 178.51562 43.544922 C 182.68263 43.544922 184.54883 42.952609 184.54883 39.474609 C 184.54883 35.975783 182.68359 35.392968 178.51953 35.392578 L 176.59961 35.392578 z M 276.1582 35.642578 L 272.80469 49.660156 L 279.47266 49.660156 L 276.1582 35.642578 z M 449.70312 86.287109 C 458.21413 86.287109 463.54822 91.109078 463.94922 99.205078 L 454.5332 99.205078 C 454.3062 96.055078 452.63214 94.390625 449.70312 94.390625 C 445.11212 94.390625 444.88672 97.309738 444.88672 103.05273 L 444.88672 113.62305 C 444.88672 119.30805 445.11214 122.29102 449.70312 122.29102 C 453.10312 122.29102 454.5332 120.29178 454.5332 115.92578 L 454.5332 114.30664 L 449.6543 114.30859 L 449.6543 107.13477 L 463.95312 107.13477 L 463.95312 129.88086 L 459.82227 129.88086 L 458.49414 126.48047 A 11.146 11.146 0 0 1 449.42773 130.44336 A 13.849 13.849 0 0 1 439.20312 126.53711 C 435.76412 122.98811 435.48047 118.56622 435.48047 112.07422 L 435.48047 104.66211 C 435.48047 98.235108 435.76413 93.745406 439.20312 90.191406 C 441.61813 87.666406 445.23614 86.287109 449.70312 86.287109 z M 210.94727 86.289062 C 217.03027 86.289062 221.68788 88.809266 224.67188 93.697266 L 218.00977 98.472656 C 215.76777 95.300656 213.29873 93.748047 210.42773 93.748047 L 210.43164 93.746094 C 207.55864 93.746094 205.7832 95.357609 205.7832 97.599609 C 205.7832 99.726609 207.44903 101.28058 210.83203 102.76758 C 215.08403 104.60558 218.8188 105.81031 221.3418 107.82031 A 12.043 12.043 0 0 1 225.76367 117.5293 C 225.76367 125.1733 220.02797 130.44336 211.29297 130.44336 A 16.9 16.9 0 0 1 196.12891 121.95117 L 203.36914 116.83594 C 205.78214 120.80494 208.14234 122.63477 211.52734 122.63477 C 214.74434 122.63477 216.80859 120.74566 216.80859 118.22266 C 216.80859 115.92266 215.31511 114.19895 212.16211 112.87695 C 208.02411 111.15795 204.40372 109.94364 201.76172 107.89062 A 11.462 11.462 0 0 1 197.33789 98.472656 C 197.33789 91.060656 202.55827 86.289063 210.94727 86.289062 z M 33.337891 87.378906 L 45.455078 87.378906 C 50.674078 87.378906 54.474203 87.616859 57.283203 89.505859 C 60.668203 91.805859 62.683594 96.164294 62.683594 101.9043 L 62.683594 114.77148 C 62.683594 120.51348 60.667203 124.93587 57.283203 127.17188 C 54.524203 129.02287 50.674078 129.36133 45.455078 129.36133 L 33.337891 129.36133 L 33.337891 87.378906 z M 93.689453 87.378906 L 103 87.378906 L 103 113.62305 C 103 119.70705 103.91819 122.29297 108.74219 122.29297 C 113.61819 122.29297 114.48242 119.65505 114.48242 113.62305 L 114.48242 87.378906 L 123.78125 87.378906 L 123.78125 115.74219 C 123.78125 125.62419 118.95623 130.39453 108.74023 130.39453 L 108.73828 130.40039 C 98.568282 130.40039 93.689453 125.57205 93.689453 115.74805 L 93.689453 87.378906 z M 156.90625 87.378906 L 166.21484 87.378906 L 166.26758 129.36328 L 156.9668 129.36328 L 156.90625 87.378906 z M 255.33984 87.378906 L 269.23828 87.378906 C 278.71128 87.378906 283.36328 90.778453 283.36328 98.064453 C 283.36328 102.60245 281.59072 105.41086 277.51172 107.25586 L 277.50781 107.25586 C 281.98481 108.68586 284.2207 112.01173 284.2207 117.30273 C 284.2207 125.51473 279.40148 129.36133 269.52148 129.36133 L 255.33984 129.36133 L 255.33984 87.378906 z M 314.65625 87.378906 L 323.95703 87.378906 L 323.95703 113.62305 C 323.95703 119.70705 324.88203 122.29297 329.70703 122.29297 C 334.58103 122.29297 335.44727 119.65505 335.44727 113.62305 L 335.44727 87.378906 L 344.74805 87.378906 L 344.74805 115.74219 C 344.74805 125.62419 339.92298 130.39453 329.70898 130.39453 L 329.70703 130.40039 C 319.53503 130.40039 314.65625 125.57205 314.65625 115.74805 L 314.65625 87.378906 z M 376.74219 87.378906 L 387.30078 87.378906 C 392.93078 87.378906 397.18166 87.551063 400.22266 89.164062 C 404.01166 91.164062 406.08008 94.906344 406.08008 99.777344 C 406.08008 105.41034 403.38063 109.43225 398.39062 111.15625 L 398.38672 111.15625 L 407.56641 129.35547 L 397.30078 129.35547 L 389.14258 112.24414 L 386.04297 112.24414 L 386.04297 129.35547 L 376.74219 129.35547 L 376.74219 87.378906 z M 264.64258 93.865234 L 264.64258 104.26562 L 268.31836 104.26562 C 272.10736 104.26562 273.94141 102.53597 273.94141 99.042969 C 273.94141 95.421969 272.16036 93.867187 268.31836 93.867188 L 268.31836 93.865234 L 264.64258 93.865234 z M 386.03711 94.5 L 386.03711 105.52344 L 388.61719 105.52344 C 394.24719 105.52344 396.76953 104.72262 396.76953 100.01562 C 396.76953 95.30863 394.24719 94.5 388.61719 94.5 L 386.03711 94.5 z M 42.640625 95.478516 L 42.640625 121.26758 L 44.824219 121.26758 C 50.850219 121.26758 53.263672 118.85272 53.263672 112.76172 L 53.263672 103.91797 C 53.263672 97.827968 50.916219 95.478516 44.824219 95.478516 L 42.640625 95.478516 z M 264.64258 110.80078 L 264.64258 122.51562 L 268.66406 122.51562 C 272.85106 122.51562 274.86523 120.67892 274.86523 116.66992 C 274.86523 112.66092 272.84806 110.80078 268.66406 110.80078 L 264.64258 110.80078 z M 130.69727 128.21094 C 136.78927 128.21094 141.43769 130.72823 144.42969 135.61523 L 137.76758 140.38086 C 135.52458 137.21986 133.05559 135.66992 130.18359 135.66992 L 130.18359 135.67188 C 127.31359 135.67188 125.53516 137.28144 125.53516 139.52344 C 125.53516 141.64644 127.19689 143.19036 130.58789 144.69336 C 134.83889 146.52436 138.57266 147.72709 141.09766 149.74609 A 12.012 12.012 0 0 1 145.51758 159.44141 C 145.51758 167.08641 139.77592 172.36328 131.04492 172.36328 A 16.869 16.869 0 0 1 115.88477 163.86328 L 123.12305 158.75391 C 125.53605 162.71191 127.8893 164.55273 131.2793 164.55273 C 134.4883 164.55273 136.56055 162.66177 136.56055 160.13477 C 136.56055 157.83977 135.06116 156.11288 131.91016 154.79688 C 127.77116 153.06987 124.15153 151.86987 121.51953 149.79688 A 11.447 11.447 0 0 1 117.08984 140.38086 C 117.08984 132.96786 122.31827 128.21094 130.69727 128.21094 z M 184.73633 128.21289 C 190.82633 128.21289 195.47203 130.73214 198.45703 135.61914 L 191.80078 140.38477 C 189.55878 137.22377 187.0917 135.67188 184.2207 135.67188 L 184.22852 135.67578 C 181.35652 135.67578 179.57422 137.28339 179.57422 139.52539 C 179.57422 141.64839 181.24881 143.19427 184.63281 144.69727 C 188.88181 146.52827 192.61653 147.731 195.14453 149.75 A 12 12 0 0 1 199.56055 159.44336 C 199.56055 167.08836 193.8177 172.36523 185.0957 172.36523 A 16.862 16.862 0 0 1 169.93164 163.86523 L 177.16797 158.75586 C 179.57497 162.71386 181.93436 164.55664 185.31836 164.55664 C 188.53936 164.55664 190.60547 162.66372 190.60547 160.13672 C 190.60547 157.84172 189.11117 156.11483 185.95117 154.79883 C 181.81317 153.07183 178.20173 151.87183 175.55273 149.79883 A 11.441 11.441 0 0 1 171.13672 140.38477 C 171.13672 132.97177 176.35633 128.21289 184.73633 128.21289 z M 306.54883 129.29492 L 314.64258 129.29492 L 314.64258 171.27344 L 307 171.27734 L 292.24609 142.91211 L 292.41797 171.27734 L 284.32617 171.27734 L 284.32617 129.30078 L 293.27734 129.30078 L 306.7207 154.80078 L 306.54883 129.29492 z M 61.630859 129.30078 L 89.945312 129.30078 L 89.945312 137.40039 L 70.933594 137.40039 L 70.933594 144.92773 L 83.912109 144.92773 L 83.912109 153.01758 L 70.933594 153.01758 L 70.933594 163.18359 L 91.148438 163.18359 L 91.148438 171.27734 L 61.630859 171.27734 L 61.630859 129.30078 z M 226.90039 129.30078 L 255.19922 129.30078 L 255.19922 137.40039 L 236.19922 137.40039 L 236.19922 144.92773 L 249.1875 144.92773 L 249.1875 153.01758 L 236.19922 153.01758 L 236.19922 163.18359 L 256.41211 163.18359 L 256.41211 171.27734 L 226.90039 171.27734 L 226.90039 129.30078 z " />
</svg>
